<mxfile host="Electron" modified="2024-04-22T05:02:19.539Z" agent="Mozilla/5.0 (Windows NT 10.0; Win64; x64) AppleWebKit/537.36 (KHTML, like Gecko) draw.io/24.2.5 Chrome/120.0.6099.109 Electron/28.1.0 Safari/537.36" etag="DUyf2o-6jg7VTtn1FjzG" version="24.2.5" type="device">
  <diagram name="Page-1" id="aawYDZnjZbvlZH1sIhG4">
    <mxGraphModel dx="989" dy="582" grid="1" gridSize="10" guides="1" tooltips="1" connect="1" arrows="1" fold="1" page="1" pageScale="1" pageWidth="850" pageHeight="1100" math="0" shadow="0">
      <root>
        <mxCell id="0" />
        <mxCell id="1" parent="0" />
        <mxCell id="lNSj1Oa06qxN7P6K6gqb-1" value="" style="rounded=0;whiteSpace=wrap;html=1;fillColor=#dae8fc;strokeColor=#6c8ebf;" vertex="1" parent="1">
          <mxGeometry x="450" y="60" width="150" height="360" as="geometry" />
        </mxCell>
        <mxCell id="lNSj1Oa06qxN7P6K6gqb-2" value="code" style="rounded=0;whiteSpace=wrap;html=1;fillColor=#f5f5f5;fontColor=#333333;strokeColor=#666666;" vertex="1" parent="1">
          <mxGeometry x="460" y="70" width="90" height="30" as="geometry" />
        </mxCell>
        <mxCell id="lNSj1Oa06qxN7P6K6gqb-3" value="Static Data" style="rounded=0;whiteSpace=wrap;html=1;fillColor=#f5f5f5;fontColor=#333333;strokeColor=#666666;" vertex="1" parent="1">
          <mxGeometry x="460" y="100" width="90" height="20" as="geometry" />
        </mxCell>
        <mxCell id="lNSj1Oa06qxN7P6K6gqb-4" value="heap" style="rounded=0;whiteSpace=wrap;html=1;fillColor=#f5f5f5;fontColor=#333333;strokeColor=#666666;" vertex="1" parent="1">
          <mxGeometry x="460" y="120" width="90" height="20" as="geometry" />
        </mxCell>
        <mxCell id="lNSj1Oa06qxN7P6K6gqb-5" value="stack" style="rounded=0;whiteSpace=wrap;html=1;fillColor=#f5f5f5;fontColor=#333333;strokeColor=#666666;" vertex="1" parent="1">
          <mxGeometry x="460" y="170" width="90" height="20" as="geometry" />
        </mxCell>
        <mxCell id="lNSj1Oa06qxN7P6K6gqb-6" value="" style="endArrow=classic;html=1;rounded=0;" edge="1" parent="1">
          <mxGeometry width="50" height="50" relative="1" as="geometry">
            <mxPoint x="540" y="180" as="sourcePoint" />
            <mxPoint x="540" y="160" as="targetPoint" />
            <Array as="points">
              <mxPoint x="540" y="190" />
            </Array>
          </mxGeometry>
        </mxCell>
        <mxCell id="lNSj1Oa06qxN7P6K6gqb-7" value="" style="endArrow=classic;html=1;rounded=0;" edge="1" parent="1">
          <mxGeometry width="50" height="50" relative="1" as="geometry">
            <mxPoint x="540" y="120" as="sourcePoint" />
            <mxPoint x="540" y="150" as="targetPoint" />
          </mxGeometry>
        </mxCell>
        <mxCell id="lNSj1Oa06qxN7P6K6gqb-8" value="code" style="rounded=0;whiteSpace=wrap;html=1;fillColor=#fff2cc;strokeColor=#d6b656;" vertex="1" parent="1">
          <mxGeometry x="460" y="260" width="90" height="30" as="geometry" />
        </mxCell>
        <mxCell id="lNSj1Oa06qxN7P6K6gqb-9" value="Static Data" style="rounded=0;whiteSpace=wrap;html=1;fillColor=#fff2cc;strokeColor=#d6b656;" vertex="1" parent="1">
          <mxGeometry x="460" y="290" width="90" height="20" as="geometry" />
        </mxCell>
        <mxCell id="lNSj1Oa06qxN7P6K6gqb-10" value="heap" style="rounded=0;whiteSpace=wrap;html=1;fillColor=#fff2cc;strokeColor=#d6b656;" vertex="1" parent="1">
          <mxGeometry x="460" y="310" width="90" height="20" as="geometry" />
        </mxCell>
        <mxCell id="lNSj1Oa06qxN7P6K6gqb-11" value="stack" style="rounded=0;whiteSpace=wrap;html=1;fillColor=#fff2cc;strokeColor=#d6b656;" vertex="1" parent="1">
          <mxGeometry x="460" y="360" width="90" height="20" as="geometry" />
        </mxCell>
        <mxCell id="lNSj1Oa06qxN7P6K6gqb-12" value="" style="endArrow=classic;html=1;rounded=0;" edge="1" parent="1">
          <mxGeometry width="50" height="50" relative="1" as="geometry">
            <mxPoint x="540" y="370" as="sourcePoint" />
            <mxPoint x="540" y="350" as="targetPoint" />
            <Array as="points">
              <mxPoint x="540" y="380" />
            </Array>
          </mxGeometry>
        </mxCell>
        <mxCell id="lNSj1Oa06qxN7P6K6gqb-13" value="" style="endArrow=classic;html=1;rounded=0;" edge="1" parent="1">
          <mxGeometry width="50" height="50" relative="1" as="geometry">
            <mxPoint x="540" y="310" as="sourcePoint" />
            <mxPoint x="540" y="340" as="targetPoint" />
          </mxGeometry>
        </mxCell>
        <mxCell id="lNSj1Oa06qxN7P6K6gqb-19" style="edgeStyle=orthogonalEdgeStyle;rounded=0;orthogonalLoop=1;jettySize=auto;html=1;dashed=1;" edge="1" parent="1" source="lNSj1Oa06qxN7P6K6gqb-14">
          <mxGeometry relative="1" as="geometry">
            <mxPoint x="460" y="259.9999999999999" as="targetPoint" />
          </mxGeometry>
        </mxCell>
        <mxCell id="lNSj1Oa06qxN7P6K6gqb-14" value="1000..." style="rounded=0;whiteSpace=wrap;html=1;" vertex="1" parent="1">
          <mxGeometry x="280" y="250" width="60" height="20" as="geometry" />
        </mxCell>
        <mxCell id="lNSj1Oa06qxN7P6K6gqb-16" value="Base" style="text;html=1;align=center;verticalAlign=middle;whiteSpace=wrap;rounded=0;" vertex="1" parent="1">
          <mxGeometry x="280" y="230" width="40" height="20" as="geometry" />
        </mxCell>
        <mxCell id="lNSj1Oa06qxN7P6K6gqb-17" value="1100..." style="rounded=0;whiteSpace=wrap;html=1;" vertex="1" parent="1">
          <mxGeometry x="280" y="370" width="60" height="20" as="geometry" />
        </mxCell>
        <mxCell id="lNSj1Oa06qxN7P6K6gqb-18" value="Bound" style="text;html=1;align=center;verticalAlign=middle;whiteSpace=wrap;rounded=0;" vertex="1" parent="1">
          <mxGeometry x="280" y="350" width="40" height="20" as="geometry" />
        </mxCell>
        <mxCell id="lNSj1Oa06qxN7P6K6gqb-21" style="edgeStyle=orthogonalEdgeStyle;rounded=0;orthogonalLoop=1;jettySize=auto;html=1;dashed=1;" edge="1" parent="1">
          <mxGeometry relative="1" as="geometry">
            <mxPoint x="460" y="379.9999999999999" as="targetPoint" />
            <mxPoint x="340" y="380" as="sourcePoint" />
          </mxGeometry>
        </mxCell>
        <mxCell id="lNSj1Oa06qxN7P6K6gqb-22" value="FFFF..." style="text;html=1;align=center;verticalAlign=middle;whiteSpace=wrap;rounded=0;" vertex="1" parent="1">
          <mxGeometry x="610" y="420" width="40" height="20" as="geometry" />
        </mxCell>
        <mxCell id="lNSj1Oa06qxN7P6K6gqb-23" value="1100..." style="text;html=1;align=center;verticalAlign=middle;whiteSpace=wrap;rounded=0;" vertex="1" parent="1">
          <mxGeometry x="610" y="370" width="40" height="20" as="geometry" />
        </mxCell>
        <mxCell id="lNSj1Oa06qxN7P6K6gqb-24" value="1000..." style="text;html=1;align=center;verticalAlign=middle;whiteSpace=wrap;rounded=0;" vertex="1" parent="1">
          <mxGeometry x="610" y="250" width="40" height="20" as="geometry" />
        </mxCell>
        <mxCell id="lNSj1Oa06qxN7P6K6gqb-26" value="0000..." style="text;html=1;align=center;verticalAlign=middle;whiteSpace=wrap;rounded=0;" vertex="1" parent="1">
          <mxGeometry x="610" y="60" width="40" height="20" as="geometry" />
        </mxCell>
        <mxCell id="lNSj1Oa06qxN7P6K6gqb-27" value="code" style="rounded=0;whiteSpace=wrap;html=1;fillColor=#fff2cc;strokeColor=#d6b656;" vertex="1" parent="1">
          <mxGeometry x="70" y="60" width="90" height="30" as="geometry" />
        </mxCell>
        <mxCell id="lNSj1Oa06qxN7P6K6gqb-28" value="Static Data" style="rounded=0;whiteSpace=wrap;html=1;fillColor=#fff2cc;strokeColor=#d6b656;" vertex="1" parent="1">
          <mxGeometry x="70" y="90" width="90" height="20" as="geometry" />
        </mxCell>
        <mxCell id="lNSj1Oa06qxN7P6K6gqb-29" value="heap" style="rounded=0;whiteSpace=wrap;html=1;fillColor=#fff2cc;strokeColor=#d6b656;" vertex="1" parent="1">
          <mxGeometry x="70" y="110" width="90" height="20" as="geometry" />
        </mxCell>
        <mxCell id="lNSj1Oa06qxN7P6K6gqb-30" value="stack" style="rounded=0;whiteSpace=wrap;html=1;fillColor=#fff2cc;strokeColor=#d6b656;" vertex="1" parent="1">
          <mxGeometry x="70" y="160" width="90" height="20" as="geometry" />
        </mxCell>
        <mxCell id="lNSj1Oa06qxN7P6K6gqb-31" value="" style="endArrow=classic;html=1;rounded=0;" edge="1" parent="1">
          <mxGeometry width="50" height="50" relative="1" as="geometry">
            <mxPoint x="150" y="170" as="sourcePoint" />
            <mxPoint x="150" y="150" as="targetPoint" />
            <Array as="points">
              <mxPoint x="150" y="180" />
            </Array>
          </mxGeometry>
        </mxCell>
        <mxCell id="lNSj1Oa06qxN7P6K6gqb-32" value="" style="endArrow=classic;html=1;rounded=0;" edge="1" parent="1">
          <mxGeometry width="50" height="50" relative="1" as="geometry">
            <mxPoint x="150" y="110" as="sourcePoint" />
            <mxPoint x="150" y="140" as="targetPoint" />
          </mxGeometry>
        </mxCell>
        <mxCell id="lNSj1Oa06qxN7P6K6gqb-39" value="0000..." style="text;html=1;align=center;verticalAlign=middle;whiteSpace=wrap;rounded=0;" vertex="1" parent="1">
          <mxGeometry x="170" y="50" width="40" height="20" as="geometry" />
        </mxCell>
        <mxCell id="lNSj1Oa06qxN7P6K6gqb-40" value="0100..." style="text;html=1;align=center;verticalAlign=middle;whiteSpace=wrap;rounded=0;" vertex="1" parent="1">
          <mxGeometry x="170" y="170" width="40" height="20" as="geometry" />
        </mxCell>
        <mxCell id="lNSj1Oa06qxN7P6K6gqb-41" value="Program&lt;div&gt;address&lt;/div&gt;" style="text;html=1;align=center;verticalAlign=middle;whiteSpace=wrap;rounded=0;" vertex="1" parent="1">
          <mxGeometry y="305" width="60" height="30" as="geometry" />
        </mxCell>
        <mxCell id="lNSj1Oa06qxN7P6K6gqb-42" value="" style="endArrow=classic;html=1;rounded=0;exitX=0;exitY=0.75;exitDx=0;exitDy=0;entryX=0;entryY=0.5;entryDx=0;entryDy=0;" edge="1" parent="1" source="lNSj1Oa06qxN7P6K6gqb-43" target="lNSj1Oa06qxN7P6K6gqb-28">
          <mxGeometry width="50" height="50" relative="1" as="geometry">
            <mxPoint x="20" y="260" as="sourcePoint" />
            <mxPoint x="30" y="100" as="targetPoint" />
            <Array as="points">
              <mxPoint x="30" y="100" />
            </Array>
          </mxGeometry>
        </mxCell>
        <mxCell id="lNSj1Oa06qxN7P6K6gqb-43" value="0010..." style="text;html=1;align=center;verticalAlign=middle;whiteSpace=wrap;rounded=0;" vertex="1" parent="1">
          <mxGeometry x="30" y="250" width="40" height="20" as="geometry" />
        </mxCell>
        <mxCell id="lNSj1Oa06qxN7P6K6gqb-44" value="&lt;font color=&quot;#ff0000&quot;&gt;1&lt;/font&gt;010..." style="text;html=1;align=center;verticalAlign=middle;whiteSpace=wrap;rounded=0;" vertex="1" parent="1">
          <mxGeometry x="60" y="300" width="40" height="20" as="geometry" />
        </mxCell>
        <mxCell id="lNSj1Oa06qxN7P6K6gqb-45" value="&amp;gt;=" style="ellipse;whiteSpace=wrap;html=1;aspect=fixed;" vertex="1" parent="1">
          <mxGeometry x="360" y="280" width="30" height="30" as="geometry" />
        </mxCell>
        <mxCell id="lNSj1Oa06qxN7P6K6gqb-47" value="" style="endArrow=classic;html=1;rounded=0;entryX=0;entryY=0;entryDx=0;entryDy=0;exitX=1;exitY=0.5;exitDx=0;exitDy=0;" edge="1" parent="1" source="lNSj1Oa06qxN7P6K6gqb-14" target="lNSj1Oa06qxN7P6K6gqb-45">
          <mxGeometry width="50" height="50" relative="1" as="geometry">
            <mxPoint x="190" y="290" as="sourcePoint" />
            <mxPoint x="240" y="240" as="targetPoint" />
          </mxGeometry>
        </mxCell>
        <mxCell id="lNSj1Oa06qxN7P6K6gqb-48" value="" style="endArrow=classic;html=1;rounded=0;entryX=0;entryY=0.5;entryDx=0;entryDy=0;exitX=1;exitY=0.5;exitDx=0;exitDy=0;" edge="1" parent="1" source="lNSj1Oa06qxN7P6K6gqb-41" target="lNSj1Oa06qxN7P6K6gqb-45">
          <mxGeometry width="50" height="50" relative="1" as="geometry">
            <mxPoint x="70" y="350" as="sourcePoint" />
            <mxPoint x="180" y="285" as="targetPoint" />
            <Array as="points">
              <mxPoint x="340" y="320" />
            </Array>
          </mxGeometry>
        </mxCell>
        <mxCell id="lNSj1Oa06qxN7P6K6gqb-49" value="&amp;lt;" style="ellipse;whiteSpace=wrap;html=1;aspect=fixed;" vertex="1" parent="1">
          <mxGeometry x="360" y="330" width="30" height="30" as="geometry" />
        </mxCell>
        <mxCell id="lNSj1Oa06qxN7P6K6gqb-50" value="" style="endArrow=classic;html=1;rounded=0;entryX=0;entryY=0.5;entryDx=0;entryDy=0;exitX=1;exitY=0.5;exitDx=0;exitDy=0;" edge="1" parent="1" target="lNSj1Oa06qxN7P6K6gqb-49">
          <mxGeometry width="50" height="50" relative="1" as="geometry">
            <mxPoint x="60" y="320" as="sourcePoint" />
            <mxPoint x="360" y="295" as="targetPoint" />
            <Array as="points">
              <mxPoint x="340" y="320" />
            </Array>
          </mxGeometry>
        </mxCell>
        <mxCell id="lNSj1Oa06qxN7P6K6gqb-51" value="" style="endArrow=classic;html=1;rounded=0;entryX=0;entryY=1;entryDx=0;entryDy=0;exitX=1;exitY=0;exitDx=0;exitDy=0;" edge="1" parent="1" source="lNSj1Oa06qxN7P6K6gqb-17" target="lNSj1Oa06qxN7P6K6gqb-49">
          <mxGeometry width="50" height="50" relative="1" as="geometry">
            <mxPoint x="350" y="270" as="sourcePoint" />
            <mxPoint x="374" y="294" as="targetPoint" />
          </mxGeometry>
        </mxCell>
        <mxCell id="lNSj1Oa06qxN7P6K6gqb-52" value="" style="rounded=0;whiteSpace=wrap;html=1;fillColor=#dae8fc;strokeColor=#6c8ebf;" vertex="1" parent="1">
          <mxGeometry x="450" y="520" width="150" height="360" as="geometry" />
        </mxCell>
        <mxCell id="lNSj1Oa06qxN7P6K6gqb-53" value="code" style="rounded=0;whiteSpace=wrap;html=1;fillColor=#f5f5f5;fontColor=#333333;strokeColor=#666666;" vertex="1" parent="1">
          <mxGeometry x="460" y="530" width="90" height="30" as="geometry" />
        </mxCell>
        <mxCell id="lNSj1Oa06qxN7P6K6gqb-54" value="Static Data" style="rounded=0;whiteSpace=wrap;html=1;fillColor=#f5f5f5;fontColor=#333333;strokeColor=#666666;" vertex="1" parent="1">
          <mxGeometry x="460" y="560" width="90" height="20" as="geometry" />
        </mxCell>
        <mxCell id="lNSj1Oa06qxN7P6K6gqb-55" value="heap" style="rounded=0;whiteSpace=wrap;html=1;fillColor=#f5f5f5;fontColor=#333333;strokeColor=#666666;" vertex="1" parent="1">
          <mxGeometry x="460" y="580" width="90" height="20" as="geometry" />
        </mxCell>
        <mxCell id="lNSj1Oa06qxN7P6K6gqb-56" value="stack" style="rounded=0;whiteSpace=wrap;html=1;fillColor=#f5f5f5;fontColor=#333333;strokeColor=#666666;" vertex="1" parent="1">
          <mxGeometry x="460" y="630" width="90" height="20" as="geometry" />
        </mxCell>
        <mxCell id="lNSj1Oa06qxN7P6K6gqb-57" value="" style="endArrow=classic;html=1;rounded=0;" edge="1" parent="1">
          <mxGeometry width="50" height="50" relative="1" as="geometry">
            <mxPoint x="540" y="640" as="sourcePoint" />
            <mxPoint x="540" y="620" as="targetPoint" />
            <Array as="points">
              <mxPoint x="540" y="650" />
            </Array>
          </mxGeometry>
        </mxCell>
        <mxCell id="lNSj1Oa06qxN7P6K6gqb-58" value="" style="endArrow=classic;html=1;rounded=0;" edge="1" parent="1">
          <mxGeometry width="50" height="50" relative="1" as="geometry">
            <mxPoint x="540" y="580" as="sourcePoint" />
            <mxPoint x="540" y="610" as="targetPoint" />
          </mxGeometry>
        </mxCell>
        <mxCell id="lNSj1Oa06qxN7P6K6gqb-59" value="code" style="rounded=0;whiteSpace=wrap;html=1;fillColor=#fff2cc;strokeColor=#d6b656;" vertex="1" parent="1">
          <mxGeometry x="460" y="720" width="90" height="30" as="geometry" />
        </mxCell>
        <mxCell id="lNSj1Oa06qxN7P6K6gqb-60" value="Static Data" style="rounded=0;whiteSpace=wrap;html=1;fillColor=#fff2cc;strokeColor=#d6b656;" vertex="1" parent="1">
          <mxGeometry x="460" y="750" width="90" height="20" as="geometry" />
        </mxCell>
        <mxCell id="lNSj1Oa06qxN7P6K6gqb-61" value="heap" style="rounded=0;whiteSpace=wrap;html=1;fillColor=#fff2cc;strokeColor=#d6b656;" vertex="1" parent="1">
          <mxGeometry x="460" y="770" width="90" height="20" as="geometry" />
        </mxCell>
        <mxCell id="lNSj1Oa06qxN7P6K6gqb-62" value="stack" style="rounded=0;whiteSpace=wrap;html=1;fillColor=#fff2cc;strokeColor=#d6b656;" vertex="1" parent="1">
          <mxGeometry x="460" y="820" width="90" height="20" as="geometry" />
        </mxCell>
        <mxCell id="lNSj1Oa06qxN7P6K6gqb-63" value="" style="endArrow=classic;html=1;rounded=0;" edge="1" parent="1">
          <mxGeometry width="50" height="50" relative="1" as="geometry">
            <mxPoint x="540" y="830" as="sourcePoint" />
            <mxPoint x="540" y="810" as="targetPoint" />
            <Array as="points">
              <mxPoint x="540" y="840" />
            </Array>
          </mxGeometry>
        </mxCell>
        <mxCell id="lNSj1Oa06qxN7P6K6gqb-64" value="" style="endArrow=classic;html=1;rounded=0;" edge="1" parent="1">
          <mxGeometry width="50" height="50" relative="1" as="geometry">
            <mxPoint x="540" y="770" as="sourcePoint" />
            <mxPoint x="540" y="800" as="targetPoint" />
          </mxGeometry>
        </mxCell>
        <mxCell id="lNSj1Oa06qxN7P6K6gqb-65" style="edgeStyle=orthogonalEdgeStyle;rounded=0;orthogonalLoop=1;jettySize=auto;html=1;dashed=1;" edge="1" parent="1" source="lNSj1Oa06qxN7P6K6gqb-66">
          <mxGeometry relative="1" as="geometry">
            <mxPoint x="460" y="719.9999999999999" as="targetPoint" />
          </mxGeometry>
        </mxCell>
        <mxCell id="lNSj1Oa06qxN7P6K6gqb-66" value="1000..." style="rounded=0;whiteSpace=wrap;html=1;" vertex="1" parent="1">
          <mxGeometry x="280" y="710" width="60" height="20" as="geometry" />
        </mxCell>
        <mxCell id="lNSj1Oa06qxN7P6K6gqb-67" value="Base" style="text;html=1;align=center;verticalAlign=middle;whiteSpace=wrap;rounded=0;" vertex="1" parent="1">
          <mxGeometry x="280" y="690" width="40" height="20" as="geometry" />
        </mxCell>
        <mxCell id="lNSj1Oa06qxN7P6K6gqb-68" value="1100..." style="rounded=0;whiteSpace=wrap;html=1;" vertex="1" parent="1">
          <mxGeometry x="280" y="830" width="60" height="20" as="geometry" />
        </mxCell>
        <mxCell id="lNSj1Oa06qxN7P6K6gqb-69" value="Bound" style="text;html=1;align=center;verticalAlign=middle;whiteSpace=wrap;rounded=0;" vertex="1" parent="1">
          <mxGeometry x="280" y="810" width="40" height="20" as="geometry" />
        </mxCell>
        <mxCell id="lNSj1Oa06qxN7P6K6gqb-70" style="edgeStyle=orthogonalEdgeStyle;rounded=0;orthogonalLoop=1;jettySize=auto;html=1;dashed=1;" edge="1" parent="1">
          <mxGeometry relative="1" as="geometry">
            <mxPoint x="460" y="839.9999999999999" as="targetPoint" />
            <mxPoint x="340" y="840" as="sourcePoint" />
          </mxGeometry>
        </mxCell>
        <mxCell id="lNSj1Oa06qxN7P6K6gqb-71" value="FFFF..." style="text;html=1;align=center;verticalAlign=middle;whiteSpace=wrap;rounded=0;" vertex="1" parent="1">
          <mxGeometry x="610" y="880" width="40" height="20" as="geometry" />
        </mxCell>
        <mxCell id="lNSj1Oa06qxN7P6K6gqb-72" value="1100..." style="text;html=1;align=center;verticalAlign=middle;whiteSpace=wrap;rounded=0;" vertex="1" parent="1">
          <mxGeometry x="610" y="830" width="40" height="20" as="geometry" />
        </mxCell>
        <mxCell id="lNSj1Oa06qxN7P6K6gqb-73" value="1000..." style="text;html=1;align=center;verticalAlign=middle;whiteSpace=wrap;rounded=0;" vertex="1" parent="1">
          <mxGeometry x="610" y="710" width="40" height="20" as="geometry" />
        </mxCell>
        <mxCell id="lNSj1Oa06qxN7P6K6gqb-74" value="0000..." style="text;html=1;align=center;verticalAlign=middle;whiteSpace=wrap;rounded=0;" vertex="1" parent="1">
          <mxGeometry x="610" y="520" width="40" height="20" as="geometry" />
        </mxCell>
        <mxCell id="lNSj1Oa06qxN7P6K6gqb-75" value="code" style="rounded=0;whiteSpace=wrap;html=1;fillColor=#fff2cc;strokeColor=#d6b656;" vertex="1" parent="1">
          <mxGeometry x="70" y="520" width="90" height="30" as="geometry" />
        </mxCell>
        <mxCell id="lNSj1Oa06qxN7P6K6gqb-76" value="Static Data" style="rounded=0;whiteSpace=wrap;html=1;fillColor=#fff2cc;strokeColor=#d6b656;" vertex="1" parent="1">
          <mxGeometry x="70" y="550" width="90" height="20" as="geometry" />
        </mxCell>
        <mxCell id="lNSj1Oa06qxN7P6K6gqb-77" value="heap" style="rounded=0;whiteSpace=wrap;html=1;fillColor=#fff2cc;strokeColor=#d6b656;" vertex="1" parent="1">
          <mxGeometry x="70" y="570" width="90" height="20" as="geometry" />
        </mxCell>
        <mxCell id="lNSj1Oa06qxN7P6K6gqb-78" value="stack" style="rounded=0;whiteSpace=wrap;html=1;fillColor=#fff2cc;strokeColor=#d6b656;" vertex="1" parent="1">
          <mxGeometry x="70" y="620" width="90" height="20" as="geometry" />
        </mxCell>
        <mxCell id="lNSj1Oa06qxN7P6K6gqb-79" value="" style="endArrow=classic;html=1;rounded=0;" edge="1" parent="1">
          <mxGeometry width="50" height="50" relative="1" as="geometry">
            <mxPoint x="150" y="630" as="sourcePoint" />
            <mxPoint x="150" y="610" as="targetPoint" />
            <Array as="points">
              <mxPoint x="150" y="640" />
            </Array>
          </mxGeometry>
        </mxCell>
        <mxCell id="lNSj1Oa06qxN7P6K6gqb-80" value="" style="endArrow=classic;html=1;rounded=0;" edge="1" parent="1">
          <mxGeometry width="50" height="50" relative="1" as="geometry">
            <mxPoint x="150" y="570" as="sourcePoint" />
            <mxPoint x="150" y="600" as="targetPoint" />
          </mxGeometry>
        </mxCell>
        <mxCell id="lNSj1Oa06qxN7P6K6gqb-81" value="0000..." style="text;html=1;align=center;verticalAlign=middle;whiteSpace=wrap;rounded=0;" vertex="1" parent="1">
          <mxGeometry x="170" y="510" width="40" height="20" as="geometry" />
        </mxCell>
        <mxCell id="lNSj1Oa06qxN7P6K6gqb-82" value="0100..." style="text;html=1;align=center;verticalAlign=middle;whiteSpace=wrap;rounded=0;" vertex="1" parent="1">
          <mxGeometry x="170" y="630" width="40" height="20" as="geometry" />
        </mxCell>
        <mxCell id="lNSj1Oa06qxN7P6K6gqb-83" value="Program&lt;div&gt;address&lt;/div&gt;" style="text;html=1;align=center;verticalAlign=middle;whiteSpace=wrap;rounded=0;" vertex="1" parent="1">
          <mxGeometry y="740" width="60" height="30" as="geometry" />
        </mxCell>
        <mxCell id="lNSj1Oa06qxN7P6K6gqb-84" value="" style="endArrow=classic;html=1;rounded=0;exitX=0;exitY=0.75;exitDx=0;exitDy=0;entryX=0;entryY=0.5;entryDx=0;entryDy=0;" edge="1" parent="1" source="lNSj1Oa06qxN7P6K6gqb-85" target="lNSj1Oa06qxN7P6K6gqb-76">
          <mxGeometry width="50" height="50" relative="1" as="geometry">
            <mxPoint x="20" y="720" as="sourcePoint" />
            <mxPoint x="30" y="560" as="targetPoint" />
            <Array as="points">
              <mxPoint x="30" y="560" />
            </Array>
          </mxGeometry>
        </mxCell>
        <mxCell id="lNSj1Oa06qxN7P6K6gqb-85" value="0010..." style="text;html=1;align=center;verticalAlign=middle;whiteSpace=wrap;rounded=0;" vertex="1" parent="1">
          <mxGeometry x="30" y="710" width="40" height="20" as="geometry" />
        </mxCell>
        <mxCell id="lNSj1Oa06qxN7P6K6gqb-86" value="0010..." style="text;html=1;align=center;verticalAlign=middle;whiteSpace=wrap;rounded=0;" vertex="1" parent="1">
          <mxGeometry x="60" y="735" width="40" height="20" as="geometry" />
        </mxCell>
        <mxCell id="lNSj1Oa06qxN7P6K6gqb-87" value="" style="ellipse;whiteSpace=wrap;html=1;aspect=fixed;" vertex="1" parent="1">
          <mxGeometry x="360" y="740" width="30" height="30" as="geometry" />
        </mxCell>
        <mxCell id="lNSj1Oa06qxN7P6K6gqb-88" value="" style="endArrow=classic;html=1;rounded=0;entryX=0;entryY=0;entryDx=0;entryDy=0;exitX=1;exitY=0.5;exitDx=0;exitDy=0;" edge="1" parent="1" source="lNSj1Oa06qxN7P6K6gqb-66" target="lNSj1Oa06qxN7P6K6gqb-87">
          <mxGeometry width="50" height="50" relative="1" as="geometry">
            <mxPoint x="190" y="750" as="sourcePoint" />
            <mxPoint x="240" y="700" as="targetPoint" />
          </mxGeometry>
        </mxCell>
        <mxCell id="lNSj1Oa06qxN7P6K6gqb-89" value="" style="endArrow=classic;html=1;rounded=0;exitX=1;exitY=0.5;exitDx=0;exitDy=0;" edge="1" parent="1" source="lNSj1Oa06qxN7P6K6gqb-83" target="lNSj1Oa06qxN7P6K6gqb-87">
          <mxGeometry width="50" height="50" relative="1" as="geometry">
            <mxPoint x="70" y="785" as="sourcePoint" />
            <mxPoint x="360" y="730" as="targetPoint" />
            <Array as="points">
              <mxPoint x="340" y="755" />
            </Array>
          </mxGeometry>
        </mxCell>
        <mxCell id="lNSj1Oa06qxN7P6K6gqb-90" value="&amp;lt;" style="ellipse;whiteSpace=wrap;html=1;aspect=fixed;" vertex="1" parent="1">
          <mxGeometry x="360" y="790" width="30" height="30" as="geometry" />
        </mxCell>
        <mxCell id="lNSj1Oa06qxN7P6K6gqb-91" value="" style="endArrow=classic;html=1;rounded=0;entryX=0;entryY=0;entryDx=0;entryDy=0;exitX=1;exitY=0.5;exitDx=0;exitDy=0;" edge="1" parent="1" target="lNSj1Oa06qxN7P6K6gqb-90">
          <mxGeometry width="50" height="50" relative="1" as="geometry">
            <mxPoint x="60" y="755" as="sourcePoint" />
            <mxPoint x="360" y="780" as="targetPoint" />
            <Array as="points">
              <mxPoint x="340" y="755" />
            </Array>
          </mxGeometry>
        </mxCell>
        <mxCell id="lNSj1Oa06qxN7P6K6gqb-92" value="" style="endArrow=classic;html=1;rounded=0;entryX=0;entryY=1;entryDx=0;entryDy=0;exitX=1;exitY=0;exitDx=0;exitDy=0;" edge="1" parent="1" source="lNSj1Oa06qxN7P6K6gqb-68" target="lNSj1Oa06qxN7P6K6gqb-90">
          <mxGeometry width="50" height="50" relative="1" as="geometry">
            <mxPoint x="350" y="730" as="sourcePoint" />
            <mxPoint x="374" y="754" as="targetPoint" />
          </mxGeometry>
        </mxCell>
        <mxCell id="lNSj1Oa06qxN7P6K6gqb-93" value="" style="shape=cross;whiteSpace=wrap;html=1;fillColor=#1ba1e2;strokeColor=#006EAF;fontColor=#ffffff;" vertex="1" parent="1">
          <mxGeometry x="367.5" y="747.5" width="15" height="15" as="geometry" />
        </mxCell>
        <mxCell id="lNSj1Oa06qxN7P6K6gqb-97" value="" style="endArrow=classic;html=1;rounded=0;exitX=1;exitY=0.5;exitDx=0;exitDy=0;entryX=0;entryY=0.25;entryDx=0;entryDy=0;" edge="1" parent="1" source="lNSj1Oa06qxN7P6K6gqb-87" target="lNSj1Oa06qxN7P6K6gqb-60">
          <mxGeometry width="50" height="50" relative="1" as="geometry">
            <mxPoint x="410" y="760" as="sourcePoint" />
            <mxPoint x="430" y="760" as="targetPoint" />
          </mxGeometry>
        </mxCell>
        <mxCell id="lNSj1Oa06qxN7P6K6gqb-98" value="&lt;font color=&quot;#ff0000&quot;&gt;1&lt;/font&gt;010..." style="text;html=1;align=center;verticalAlign=middle;whiteSpace=wrap;rounded=0;" vertex="1" parent="1">
          <mxGeometry x="390" y="755" width="40" height="20" as="geometry" />
        </mxCell>
        <mxCell id="lNSj1Oa06qxN7P6K6gqb-99" value="address translated on the fly" style="whiteSpace=wrap;html=1;shape=mxgraph.basic.rectCallout;dx=40.66;dy=27;boundedLbl=1;" vertex="1" parent="1">
          <mxGeometry x="360" y="660" width="100" height="80" as="geometry" />
        </mxCell>
      </root>
    </mxGraphModel>
  </diagram>
</mxfile>
